<svg width="32" height="33" viewBox="0 0 32 33" fill="none" xmlns="http://www.w3.org/2000/svg">
<path d="M15 32.625C23.2842 32.625 30 25.9092 30 17.625C30 9.34072 23.2842 2.625 15 2.625C6.71572 2.625 0 9.34072 0 17.625C0 25.9092 6.71572 32.625 15 32.625Z" fill="#206466"/>
<path fill-rule="evenodd" clip-rule="evenodd" d="M23.0627 5.09928C22.5246 5.40995 21.8366 5.22558 21.5259 4.6875C21.2153 4.14942 21.3996 3.46139 21.9377 3.15072L27.1338 0.150722C27.5279 -0.0767827 28.0202 -0.0445177 28.3812 0.232487C28.7423 0.509477 28.9008 0.976667 28.7831 1.41618L27.2898 6.98889L30.1338 5.34689C30.6719 5.03622 31.3599 5.22059 31.6706 5.75865C31.9814 6.29673 31.7969 6.98478 31.2588 7.29543L26.0627 10.2954C25.6686 10.523 25.1763 10.4907 24.8154 10.2137C24.4544 9.93668 24.2958 9.4695 24.4136 9.02999L25.9067 3.45728L23.0627 5.09928Z" fill="#40C8CB"/>
<path fill-rule="evenodd" clip-rule="evenodd" d="M17.5098 7.34946C16.9718 7.03881 16.7873 6.35076 17.0981 5.81269C17.4087 5.27461 18.0968 5.09025 18.6348 5.40091L21.2328 6.90091C21.6269 7.12842 21.8451 7.5709 21.7857 8.02203C21.7263 8.47315 21.401 8.84409 20.9615 8.96185L19.487 9.35698L19.7328 9.49899C20.2709 9.80964 20.4554 10.4977 20.1446 11.0358C19.8339 11.5738 19.1459 11.7582 18.6078 11.4475L16.0098 9.94753C15.6158 9.72003 15.3975 9.27754 15.4569 8.82642C15.5163 8.37529 15.8415 8.00436 16.2812 7.88659L17.7557 7.49146L17.5098 7.34946Z" fill="#40C8CB"/>
<path d="M15 25.125C15.8284 25.125 16.5 24.4534 16.5 23.625C16.5 22.7965 15.8284 22.125 15 22.125C14.1715 22.125 13.5 22.7965 13.5 23.625C13.5 24.4534 14.1715 25.125 15 25.125Z" fill="#40C8CB"/>
<path d="M16.4977 15.2886C16.9596 14.8731 17.671 14.9107 18.0864 15.3727C18.7837 16.1479 19.5339 16.5 20.25 16.5C20.9662 16.5 21.7162 16.1479 22.4136 15.3727C22.8291 14.9107 23.5404 14.8731 24.0022 15.2886C24.4642 15.7041 24.5019 16.4154 24.0864 16.8772C23.083 17.9929 21.7647 18.75 20.25 18.75C18.7353 18.75 17.4169 17.9929 16.4136 16.8772C15.9981 16.4154 16.0357 15.7041 16.4977 15.2886Z" fill="#40C8CB"/>
<path d="M7.58646 15.3727C7.17097 14.9107 6.45966 14.8731 5.9977 15.2886C5.53573 15.7041 5.49807 16.4154 5.91355 16.8772C6.91702 17.9929 8.23531 18.75 9.75001 18.75C11.2647 18.75 12.583 17.9929 13.5864 16.8772C14.0019 16.4154 13.9642 15.7041 13.5022 15.2886C13.0404 14.8731 12.329 14.9107 11.9136 15.3727C11.2163 16.1479 10.4662 16.5 9.75001 16.5C9.03382 16.5 8.28375 16.1479 7.58646 15.3727Z" fill="#40C8CB"/>
</svg>
