<svg width="362" height="362" viewBox="0 0 362 362" fill="none" xmlns="http://www.w3.org/2000/svg">
<g opacity="0.7">
<line x1="40.7227" y1="2.18557e-08" x2="40.7226" y2="362" stroke="white" stroke-opacity="0.1"/>
<line x1="121.167" y1="2.18557e-08" x2="121.167" y2="362" stroke="white" stroke-opacity="0.1"/>
<line x1="161.389" y1="2.18557e-08" x2="161.389" y2="362" stroke="white" stroke-opacity="0.1"/>
<line x1="282.057" y1="2.18557e-08" x2="282.057" y2="362" stroke="white" stroke-opacity="0.1"/>
<line x1="201.611" y1="2.18557e-08" x2="201.611" y2="362" stroke="white" stroke-opacity="0.1"/>
<line x1="80.9434" y1="2.18557e-08" x2="80.9433" y2="362" stroke="white" stroke-opacity="0.1"/>
<line x1="241.833" y1="2.18557e-08" x2="241.833" y2="362" stroke="white" stroke-opacity="0.1"/>
<line x1="322.277" y1="2.18557e-08" x2="322.277" y2="362" stroke="white" stroke-opacity="0.1"/>
<line x1="362" y1="40.7266" x2="-4.37114e-08" y2="40.7265" stroke="white" stroke-opacity="0.1"/>
<line x1="362" y1="121.168" x2="-4.37114e-08" y2="121.168" stroke="white" stroke-opacity="0.1"/>
<line x1="362" y1="161.391" x2="-4.37114e-08" y2="161.391" stroke="white" stroke-opacity="0.1"/>
<line x1="362" y1="282.055" x2="-4.37114e-08" y2="282.055" stroke="white" stroke-opacity="0.1"/>
<line x1="362" y1="201.609" x2="-4.37114e-08" y2="201.609" stroke="white" stroke-opacity="0.1"/>
<line x1="362" y1="80.9453" x2="-4.37114e-08" y2="80.9453" stroke="white" stroke-opacity="0.1"/>
<line x1="362" y1="241.832" x2="-4.37114e-08" y2="241.832" stroke="white" stroke-opacity="0.1"/>
<line x1="362" y1="322.273" x2="-4.37114e-08" y2="322.273" stroke="white" stroke-opacity="0.1"/>
</g>
</svg>
