<svg width="42" height="42" viewBox="0 0 42 42" fill="none" xmlns="http://www.w3.org/2000/svg">
<path fill-rule="evenodd" clip-rule="evenodd" d="M20.8281 34.7812C13.1216 34.7812 6.875 28.5339 6.875 20.8281C6.875 13.1216 13.1216 6.875 20.8281 6.875C28.5347 6.875 34.7812 13.1216 34.7812 20.8281C34.7812 28.5339 28.5347 34.7812 20.8281 34.7812ZM37.9574 23.5864L40.6562 21.5625V15.6875L38.5838 17.2414C38.5838 17.2414 37.1217 18.2049 36.7677 16.7663C36.5467 15.8711 37.0417 14.652 37.0417 14.652L38.3672 11.55L35.4297 6.46155L34.4111 8.84459C34.4111 8.84459 33.6268 10.4088 32.6009 9.3403C31.962 8.67495 31.7813 7.37291 31.7813 7.37291L31.3782 4.02342L26.2897 1.08592L26.5996 3.6577C26.5996 3.6577 26.7031 5.40625 25.2799 4.9928C24.395 4.7365 23.5864 3.69809 23.5864 3.69809L21.5625 1H15.6875L17.2414 3.07241C17.2414 3.07241 18.2057 4.53381 16.7663 4.88852C15.8718 5.10809 14.652 4.61459 14.652 4.61459L11.55 3.28905L6.46228 6.22655L8.84459 7.24366C8.84459 7.24366 10.4103 8.02797 9.3403 9.05536C8.67642 9.69206 7.37291 9.87419 7.37291 9.87419L4.02342 10.2774L1.08666 15.3651L1.08592 15.3666L3.6577 15.0567C3.6577 15.0567 5.40625 14.9531 4.99353 16.3763C4.7365 17.2613 3.69883 18.0698 3.69883 18.0698L1 20.0938V25.9688L3.07241 24.4148C3.07241 24.4148 4.53455 23.4506 4.88852 24.89C5.10883 25.7852 4.61459 27.0042 4.61459 27.0042L3.28905 30.1062L6.22655 35.194L7.24439 32.8117C7.24439 32.8117 8.0287 31.246 9.05536 32.316C9.6928 32.9798 9.87492 34.2833 9.87492 34.2833L10.2781 37.6328L15.3658 40.5696L15.3666 40.5703L15.0567 37.9985C15.0567 37.9985 14.9531 36.25 16.3763 36.6635C17.262 36.9197 18.0698 37.9574 18.0698 37.9574L20.0938 40.6562H25.9688L24.4148 38.5838C24.4148 38.5838 23.4513 37.121 24.89 36.7677C25.7859 36.5467 27.0042 37.0417 27.0042 37.0417L30.1062 38.3672L35.194 35.4297L35.1947 35.4282L32.8117 34.4111C32.8117 34.4111 31.2474 33.6268 32.316 32.6009C32.9813 31.9612 34.2833 31.7806 34.2833 31.7806L37.6328 31.3774L40.5703 26.2897L37.9985 26.5996C37.9985 26.5996 36.25 26.7031 36.6627 25.2799C36.9198 24.3935 37.9574 23.5864 37.9574 23.5864Z" fill="#A3A3A3"/>
<path fill-rule="evenodd" clip-rule="evenodd" d="M20.8281 24.5C18.7998 24.5 17.1562 22.8565 17.1562 20.8281C17.1562 18.7998 18.7998 17.1562 20.8281 17.1562C22.8565 17.1562 24.5 18.7998 24.5 20.8281C24.5 22.8565 22.8565 24.5 20.8281 24.5ZM20.8281 6.875C13.1216 6.875 6.875 13.1216 6.875 20.8281C6.875 28.5339 13.1216 34.7812 20.8281 34.7812C28.5347 34.7812 34.7812 28.5339 34.7812 20.8281C34.7812 13.1216 28.5347 6.875 20.8281 6.875Z" fill="#808080"/>
<path fill-rule="evenodd" clip-rule="evenodd" d="M34.7812 20.8281C34.7812 28.5339 28.5347 34.7812 20.8281 34.7812C13.1216 34.7812 6.875 28.5339 6.875 20.8281C6.875 13.1216 13.1216 6.875 20.8281 6.875C28.5347 6.875 34.7812 13.1216 34.7812 20.8281Z" stroke="#818181" stroke-width="1.46875" stroke-linecap="round" stroke-linejoin="round"/>
<path fill-rule="evenodd" clip-rule="evenodd" d="M40.5703 26.2904L37.6328 31.3782L34.2833 31.7813C34.2833 31.7813 32.9813 31.962 32.316 32.6016C31.2474 33.6268 32.8124 34.4119 32.8124 34.4119L35.1954 35.4282L35.1947 35.4297L30.1062 38.3672L27.0042 37.0424C27.0042 37.0424 25.7859 36.5474 24.89 36.7685C23.4513 37.121 24.4148 38.5838 24.4148 38.5838L25.9695 40.6562H20.0938L18.0698 37.9582C18.0698 37.9582 17.262 36.9205 16.3763 36.6635C14.9531 36.2507 15.0567 37.9985 15.0567 37.9985L15.3666 40.5703L15.3658 40.5696L10.2781 37.6328L9.87492 34.2841C9.87492 34.2841 9.6928 32.9798 9.05536 32.316C8.0287 31.246 7.24439 32.8124 7.24439 32.8124L6.22655 35.194L3.28905 30.1062L4.61459 27.005C4.61459 27.005 5.10883 25.7859 4.88852 24.8907C4.53528 23.4513 3.07241 24.4148 3.07241 24.4148L1 25.9695V20.0938L3.69883 18.0705C3.69883 18.0705 4.7365 17.2613 4.99353 16.3763C5.40625 14.9531 3.6577 15.0567 3.6577 15.0567L1.08592 15.3666L1.08666 15.3651L4.02342 10.2774L7.37291 9.87419C7.37291 9.87419 8.67642 9.69206 9.34103 9.05536C10.411 8.0287 8.84459 7.24366 8.84459 7.24366L6.46302 6.22728L11.55 3.28978L14.652 4.61459C14.652 4.61459 15.8718 5.10809 16.7663 4.88852C18.2057 4.53455 17.2414 3.07314 17.2414 3.07314L15.6875 1H21.5625L23.5864 3.69809C23.5864 3.69809 24.3957 4.7365 25.2806 4.99353C26.7031 5.40698 26.6003 3.65844 26.6003 3.65844L26.2904 1.08666L31.3782 4.02416L31.7813 7.37291C31.7813 7.37291 31.962 8.67569 32.6009 9.34103C33.6268 10.4095 34.4111 8.84459 34.4111 8.84459L35.429 6.46155L35.4297 6.46228L38.3672 11.5508L37.0417 14.652C37.0417 14.652 36.5467 15.8711 36.7677 16.7663C37.1217 18.2049 38.5838 17.2422 38.5838 17.2422L40.6562 15.6875V21.5632L37.9574 23.5864C37.9574 23.5864 36.9197 24.3942 36.6635 25.2806C36.25 26.7031 37.9985 26.6003 37.9985 26.6003L40.5703 26.2904Z" stroke="#808080" stroke-width="1.46875" stroke-linecap="round" stroke-linejoin="round"/>
<path fill-rule="evenodd" clip-rule="evenodd" d="M24.5 20.8281C24.5 22.8565 22.8565 24.5 20.8281 24.5C18.7998 24.5 17.1562 22.8565 17.1562 20.8281C17.1562 18.7998 18.7998 17.1562 20.8281 17.1562C22.8565 17.1562 24.5 18.7998 24.5 20.8281Z" stroke="#808080" stroke-width="1.46875" stroke-linecap="round" stroke-linejoin="round"/>
</svg>
