<svg width="21" height="21" viewBox="0 0 21 21" fill="none" xmlns="http://www.w3.org/2000/svg">
<g clip-path="url(#clip0_6006_1510)">
<path d="M17.789 3.70128C16.4296 3.06527 14.9761 2.60304 13.4565 2.33984C13.2699 2.67725 13.0519 3.13108 12.9016 3.49209C11.2862 3.24916 9.68567 3.24916 8.10001 3.49209C7.94972 3.13108 7.72674 2.67725 7.53844 2.33984C6.01721 2.60304 4.56204 3.06697 3.20267 3.70465C0.460812 7.84796 -0.28246 11.8883 0.0891771 15.8714C1.90772 17.2294 3.67011 18.0544 5.40275 18.5942C5.83055 18.0054 6.21209 17.3796 6.54078 16.7199C5.91478 16.4821 5.31521 16.1885 4.74869 15.8478C4.89899 15.7364 5.046 15.62 5.18803 15.5002C8.64342 17.1164 12.3978 17.1164 15.8119 15.5002C15.9556 15.62 16.1026 15.7364 16.2512 15.8478C15.683 16.1902 15.0818 16.4837 14.4558 16.7216C14.7845 17.3796 15.1644 18.0071 15.5939 18.5959C17.3282 18.0561 19.0922 17.2311 20.9107 15.8714C21.3468 11.254 20.1658 7.25075 17.789 3.70128ZM7.01153 13.4218C5.97426 13.4218 5.12361 12.4535 5.12361 11.2743C5.12361 10.095 5.95609 9.12502 7.01153 9.12502C8.06699 9.12502 8.91761 10.0934 8.89945 11.2743C8.90109 12.4535 8.06699 13.4218 7.01153 13.4218ZM13.9884 13.4218C12.9511 13.4218 12.1005 12.4535 12.1005 11.2743C12.1005 10.095 12.9329 9.12502 13.9884 9.12502C15.0438 9.12502 15.8945 10.0934 15.8763 11.2743C15.8763 12.4535 15.0438 13.4218 13.9884 13.4218Z" fill="#5865F2"/>
</g>
<defs>
<clipPath id="clip0_6006_1510">
<rect width="21" height="21" fill="white"/>
</clipPath>
</defs>
</svg>
