<svg width="31" height="32" viewBox="0 0 31 32" fill="none" xmlns="http://www.w3.org/2000/svg">
<path d="M24.791 10.75C27.2073 10.75 29.166 8.79124 29.166 6.375C29.166 3.95876 27.2073 2 24.791 2C22.3747 2 20.416 3.95876 20.416 6.375C20.416 8.79124 22.3747 10.75 24.791 10.75Z" fill="#F6636B"/>
<path d="M24.7917 12.9362C21.175 12.9362 18.2292 9.99036 18.2292 6.3737C18.2292 5.3237 18.5062 4.34661 18.9437 3.45703H8.05C3.01875 3.45703 0 6.4612 0 11.507V23.1008C0 28.1612 3.01875 31.1654 8.05 31.1654H19.6437C24.6896 31.1654 27.6937 28.1612 27.6937 23.1154V12.2216C26.8187 12.6591 25.8417 12.9362 24.7917 12.9362Z" fill="#EEEEEE"/>
<path d="M14.2184 19.5H6.92676C6.32884 19.5 5.83301 19.0042 5.83301 18.4063C5.83301 17.8083 6.32884 17.3125 6.92676 17.3125H14.2184C14.8163 17.3125 15.3122 17.8083 15.3122 18.4063C15.3122 19.0042 14.8163 19.5 14.2184 19.5Z" fill="#808080"/>
<path d="M20.0518 25.332H6.92676C6.32884 25.332 5.83301 24.8362 5.83301 24.2383C5.83301 23.6404 6.32884 23.1445 6.92676 23.1445H20.0518C20.6497 23.1445 21.1455 23.6404 21.1455 24.2383C21.1455 24.8362 20.6497 25.332 20.0518 25.332Z" fill="#808080"/>
<path d="M25.3674 4.71839V9.08203H24.4448V5.5941H24.4192L23.4199 6.22053V5.40234L24.5002 4.71839H25.3674Z" fill="#F6636B"/>
<path d="M23 16C27.4184 16 31 12.4183 31 8C31 3.58173 27.4184 0 23 0C18.5816 0 15 3.58173 15 8C15 12.4183 18.5816 16 23 16Z" fill="#F6636B"/>
<path d="M24.3112 3.99734V11.9766H22.6242V5.59864H22.5774L20.7502 6.7441V5.24799L22.7255 3.99734H24.3112Z" fill="#EEEEEE"/>
</svg>
