<svg width="166" height="166" viewBox="0 0 166 166" fill="none" xmlns="http://www.w3.org/2000/svg">
<path d="M149.939 76.6225C158.74 76.6225 165.875 69.4875 165.875 60.6862C165.875 51.8849 158.739 44.75 149.938 44.75C141.136 44.75 134 51.8855 134 60.6875V76.6225H149.939ZM105.312 76.6225C114.114 76.6225 121.25 69.4869 121.25 60.685V16.0625C121.25 7.26047 114.114 0.125 105.312 0.125C96.5105 0.125 89.375 7.26047 89.375 16.0625V60.685C89.375 69.4869 96.5105 76.6225 105.312 76.6225Z" fill="#2EB67D"/>
<path d="M16.0612 89.3789C7.25984 89.3789 0.125 96.5138 0.125 105.315C0.125 114.116 7.26054 121.251 16.0618 121.251C24.8638 121.251 32 114.116 32 105.314V89.3789H16.0612ZM60.6875 89.3789C51.8855 89.3789 44.75 96.5144 44.75 105.316V149.939C44.75 158.741 51.8855 165.876 60.6875 165.876C69.4895 165.876 76.625 158.741 76.625 149.939V105.316C76.625 96.5144 69.4895 89.3789 60.6875 89.3789Z" fill="#E01E5A"/>
<path d="M89.3779 149.939C89.3779 158.74 96.5128 165.875 105.314 165.875C114.115 165.875 121.25 158.739 121.25 149.938C121.25 141.136 114.115 134 105.313 134H89.3779V149.939ZM89.3779 105.312C89.3779 114.114 96.5135 121.25 105.315 121.25H149.938C158.74 121.25 165.875 114.114 165.875 105.312C165.875 96.5105 158.74 89.375 149.938 89.375H105.315C96.5135 89.375 89.3779 96.5105 89.3779 105.312Z" fill="#ECB22E"/>
<path d="M76.6225 16.0612C76.6225 7.25984 69.4875 0.125 60.6862 0.125C51.8849 0.125 44.75 7.26054 44.75 16.0618C44.75 24.8639 51.8855 32 60.6875 32H76.6225V16.0612ZM76.6225 60.6875C76.6225 51.8855 69.4869 44.75 60.685 44.75H16.0625C7.26047 44.75 0.125 51.8855 0.125 60.6875C0.125 69.4895 7.26047 76.625 16.0625 76.625H60.685C69.4869 76.625 76.6225 69.4895 76.6225 60.6875Z" fill="#36C5F0"/>
</svg>
