<svg width="19" height="19" viewBox="0 0 19 19" fill="none" xmlns="http://www.w3.org/2000/svg">
<mask id="mask0_6926_2486" style="mask-type:luminance" maskUnits="userSpaceOnUse" x="0" y="0" width="19" height="19">
<path d="M9.5 19C14.7467 19 19 14.7467 19 9.5C19 4.25329 14.7467 0 9.5 0C4.25329 0 0 4.25329 0 9.5C0 14.7467 4.25329 19 9.5 19Z" fill="white"/>
</mask>
<g mask="url(#mask0_6926_2486)">
<path d="M-0.515625 -0.511719H19.517V19.5209H-0.515625V-0.511719Z" fill="#4A8CFF"/>
</g>
<mask id="mask1_6926_2486" style="mask-type:luminance" maskUnits="userSpaceOnUse" x="3" y="6" width="13" height="7">
<path d="M12.3916 8.26513L15.0764 6.30318C15.3108 6.11214 15.4895 6.15655 15.4895 6.5097V12.4926C15.4895 12.8892 15.2664 12.8437 15.0764 12.6992L12.3916 10.7372V8.26513ZM3.30469 6.52415V10.985C3.30715 11.4693 3.50182 11.9328 3.84591 12.2736C4.19 12.6144 4.65534 12.8046 5.13963 12.8024H11.6451C11.7331 12.8027 11.8176 12.7681 11.8801 12.7061C11.9426 12.6442 11.9781 12.56 11.9786 12.472V8.01111C11.9761 7.52682 11.7815 7.06333 11.4374 6.72253C11.0933 6.38173 10.6279 6.19152 10.1437 6.19372H3.63822C3.55021 6.19345 3.46569 6.22807 3.40317 6.29001C3.34065 6.35195 3.30523 6.43615 3.30469 6.52415Z" fill="white"/>
</mask>
<g mask="url(#mask1_6926_2486)">
<path d="M2.78906 5.67578H16.0065V13.3171H2.78906V5.67578Z" fill="white"/>
</g>
</svg>
